<?xml version="1.0" encoding="UTF-8"?>
<svg id="Layer_1" data-name="Layer 1" xmlns="http://www.w3.org/2000/svg" viewBox="0 0 488.89 89.15">
  <defs>
    <style>
      .cls-1 {
        letter-spacing: 0em;
      }

      .cls-2 {
        letter-spacing: -.03em;
      }

      .cls-3 {
        letter-spacing: 0em;
      }

      .cls-4 {
        fill: #fff;
        font-family: GreycliffCF-Medium, 'Greycliff CF';
        font-size: 78.91px;
        font-weight: 500;
      }

      .cls-4, .cls-5 {
        stroke: #fff;
      }

      .cls-5 {
        fill: none;
        stroke-linecap: round;
        stroke-linejoin: round;
        stroke-width: 6.36px;
      }

      .cls-6 {
        letter-spacing: -.03em;
      }
    </style>
  </defs>
  <g>
    <path class="cls-5" d="m24.55,19.91v10.6c0,3.28,1.6,6.43,4.44,8.75l15.37,12.55c2.84,2.32,4.44,5.47,4.44,8.75v11.86"/>
    <path class="cls-5" d="m48.63,19.91v10.6c0,3.28-1.6,6.43-4.44,8.75l-15.37,12.55c-2.84,2.32-4.44,5.47-4.44,8.75v11.86"/>
    <path class="cls-5" d="m36.16,62.86l-9.35,10.51c-1.19,1.34-3.64,1.33-4.82-.01l-9.23-10.5"/>
    <path class="cls-5" d="m60.33,62.86l-9.35,10.51c-1.19,1.34-3.64,1.33-4.82-.01l-9.23-10.5"/>
  </g>
  <text class="cls-4" transform="translate(74.86 67.62)"><tspan x="0" y="0">d</tspan><tspan class="cls-6" x="49.24" y="0">o</tspan><tspan x="93.59" y="0">wnmi</tspan><tspan class="cls-2" x="291.26" y="0">x</tspan><tspan class="cls-3" x="328.35" y="0">e</tspan><tspan class="cls-1" x="373.41" y="0">r</tspan></text>
</svg>